<svg width="20" height="26" viewBox="0 0 20 26" fill="none" xmlns="http://www.w3.org/2000/svg">
<path fill-rule="evenodd" clip-rule="evenodd" d="M10 2C7.68397 2 5.80645 3.9401 5.80645 6.33333C5.80645 8.72657 7.68397 10.6667 10 10.6667C12.316 10.6667 14.1935 8.72657 14.1935 6.33333C14.1935 3.9401 12.316 2 10 2ZM3.87097 6.33333C3.87097 2.83553 6.61503 0 10 0C13.385 0 16.129 2.83553 16.129 6.33333C16.129 9.83114 13.385 12.6667 10 12.6667C6.61503 12.6667 3.87097 9.83114 3.87097 6.33333Z" fill="white"/>
<path fill-rule="evenodd" clip-rule="evenodd" d="M6.83272 17.3333C4.12805 17.3333 1.93548 19.599 1.93548 22.3938C1.93548 22.5406 1.96144 22.6441 1.98865 22.7045C2.01162 22.7554 2.03132 22.7699 2.04776 22.7791C2.79984 23.202 4.90852 24 10 24C15.0915 24 17.2002 23.202 17.9522 22.7791C17.9687 22.7699 17.9884 22.7554 18.0114 22.7045C18.0386 22.6441 18.0645 22.5406 18.0645 22.3938C18.0645 19.599 15.8719 17.3333 13.1673 17.3333H6.83272ZM0 22.3938C0 18.4944 3.05911 15.3333 6.83272 15.3333H13.1673C16.9409 15.3333 20 18.4944 20 22.3938C20 23.1096 19.7492 24.0456 18.8774 24.5358C17.7224 25.1853 15.2448 26 10 26C4.75518 26 2.27757 25.1853 1.12265 24.5358C0.250793 24.0456 0 23.1096 0 22.3938Z" fill="white"/>
</svg>
