<svg width="26" height="24" viewBox="0 0 26 24" fill="none" xmlns="http://www.w3.org/2000/svg">
<path fill-rule="evenodd" clip-rule="evenodd" d="M13.9316 2.15442C13.3685 1.79652 12.6315 1.79652 12.0684 2.15442L2.78637 8.05444C2.35336 8.32968 2.08971 8.77323 2.07021 9.2495C2.00283 10.8958 1.93141 13.7788 2.12756 15.8252C2.27552 17.3689 2.66936 19.4095 2.98927 20.9107C3.13783 21.6078 3.79519 22.114 4.57648 22.114H8.89763C9.08172 22.114 9.23096 21.9733 9.23096 21.7997V16.7704C9.23096 15.5551 10.2756 14.57 11.5643 14.57H14.8318C16.1205 14.57 17.1652 15.5551 17.1652 16.7704V21.7997C17.1652 21.9733 17.3144 22.114 17.4985 22.114H21.4235C22.2048 22.114 22.8622 21.6078 23.0107 20.9107C23.3306 19.4095 23.7245 17.3689 23.8724 15.8252C24.0686 13.7788 23.9972 10.8958 23.9298 9.2495C23.9103 8.77323 23.6466 8.32968 23.2136 8.05444L13.9316 2.15442ZM10.9506 0.590534C12.1893 -0.196844 13.8107 -0.196845 15.0494 0.590533L24.3315 6.49056C25.2794 7.0931 25.8836 8.08374 25.9283 9.17676C25.9956 10.8212 26.0734 13.8142 25.8643 15.995C25.7059 17.6479 25.2929 19.7742 24.9715 21.2823C24.6299 22.8852 23.1301 24 21.4235 24H17.4985C16.2098 24 15.1652 23.0149 15.1652 21.7997V16.7704C15.1652 16.5968 15.0159 16.456 14.8318 16.456H11.5643C11.3802 16.456 11.231 16.5968 11.231 16.7704V21.7997C11.231 23.0149 10.1863 24 8.89763 24H4.57648C2.86989 24 1.37006 22.8852 1.02846 21.2823C0.707097 19.7742 0.294115 17.6479 0.135676 15.995C-0.0733508 13.8142 0.00439517 10.8212 0.0717015 9.17676C0.116437 8.08375 0.720556 7.0931 1.66849 6.49056L10.9506 0.590534Z" fill="white"/>
</svg>
