<svg width="15" height="15" viewBox="0 0 15 15" fill="none" xmlns="http://www.w3.org/2000/svg">
<path fill-rule="evenodd" clip-rule="evenodd" d="M7.5 1.15385C3.99512 1.15385 1.15385 3.99512 1.15385 7.5C1.15385 8.55 1.4084 9.53885 1.85865 10.4098C1.90098 10.4917 1.92308 10.5826 1.92308 10.6748V13.0769H4.32523C4.41742 13.0769 4.50827 13.099 4.59016 13.1414C5.46115 13.5916 6.45 13.8462 7.5 13.8462C11.0049 13.8462 13.8462 11.0049 13.8462 7.5C13.8462 3.99512 11.0049 1.15385 7.5 1.15385ZM0 7.5C0 3.35786 3.35786 0 7.5 0C11.6421 0 15 3.35786 15 7.5C15 11.6421 11.6421 15 7.5 15C6.31216 15 5.18736 14.7234 4.18791 14.2308H1.34615C1.02753 14.2308 0.769231 13.9725 0.769231 13.6538V10.8121C0.276554 9.81264 0 8.68784 0 7.5Z" fill="#030D45"/>
<path d="M5.96154 7.5C5.96154 7.92483 5.61714 8.26923 5.19231 8.26923C4.76747 8.26923 4.42308 7.92483 4.42308 7.5C4.42308 7.07517 4.76747 6.73077 5.19231 6.73077C5.61714 6.73077 5.96154 7.07517 5.96154 7.5Z" fill="#030D45"/>
<path d="M8.26923 7.5C8.26923 7.92483 7.92483 8.26923 7.5 8.26923C7.07517 8.26923 6.73077 7.92483 6.73077 7.5C6.73077 7.07517 7.07517 6.73077 7.5 6.73077C7.92483 6.73077 8.26923 7.07517 8.26923 7.5Z" fill="#030D45"/>
<path d="M10.5769 7.5C10.5769 7.92483 10.2325 8.26923 9.80769 8.26923C9.38286 8.26923 9.03846 7.92483 9.03846 7.5C9.03846 7.07517 9.38286 6.73077 9.80769 6.73077C10.2325 6.73077 10.5769 7.07517 10.5769 7.5Z" fill="#030D45"/>
</svg>
