<svg width="20" height="27" viewBox="0 0 20 27" fill="none" xmlns="http://www.w3.org/2000/svg">
<path fill-rule="evenodd" clip-rule="evenodd" d="M2.18228 15.3597L0.482703 14C0.169429 14.9561 0 15.9774 0 17.0383C0 22.4231 4.36522 26.7883 9.75 26.7883C15.1348 26.7883 19.5 22.4231 19.5 17.0383C19.5 15.9774 19.3306 14.9561 19.0173 14L17.3177 15.3597C17.4371 15.9002 17.5 16.4619 17.5 17.0383C17.5 21.3185 14.0302 24.7883 9.75 24.7883C5.46979 24.7883 2 21.3185 2 17.0383C2 16.4619 2.06293 15.9002 2.18228 15.3597Z" fill="white"/>
<path d="M9.75016 2L9.12547 1.21913L9.75016 0.719375L10.3749 1.21913L9.75016 2ZM10.7502 15.125C10.7502 15.6773 10.3024 16.125 9.75016 16.125C9.19788 16.125 8.75016 15.6773 8.75016 15.125L10.7502 15.125ZM1.8338 7.05246L9.12547 1.21913L10.3749 2.78087L3.08319 8.6142L1.8338 7.05246ZM10.3749 1.21913L17.6665 7.05246L16.4171 8.6142L9.12547 2.78087L10.3749 1.21913ZM10.7502 2L10.7502 15.125L8.75016 15.125L8.75016 2L10.7502 2Z" fill="white"/>
</svg>
